<svg width="431" height="429" viewBox="0 0 431 429" fill="none" xmlns="http://www.w3.org/2000/svg">
<ellipse cx="215.5" cy="214.5" rx="215.5" ry="214.5" fill="#D9D9D9"/>
<ellipse cx="214" cy="217" rx="186" ry="178" fill="#121111"/>
<path d="M214.5 106L237.513 183.045H311.983L251.735 230.661L274.748 307.705L214.5 260.089L154.252 307.705L177.265 230.661L117.017 183.045H191.487L214.5 106Z" fill="#D9D9D9"/>
<path d="M167.628 416V404.364H169.037V414.75H174.446V416H167.628ZM181.946 412.432V407.273H183.287V416H181.946V414.523H181.855C181.651 414.966 181.332 415.343 180.901 415.653C180.469 415.96 179.923 416.114 179.264 416.114C178.719 416.114 178.234 415.994 177.81 415.756C177.385 415.513 177.052 415.15 176.81 414.665C176.567 414.176 176.446 413.561 176.446 412.818V407.273H177.787V412.727C177.787 413.364 177.965 413.871 178.321 414.25C178.681 414.629 179.139 414.818 179.696 414.818C180.029 414.818 180.368 414.733 180.713 414.562C181.062 414.392 181.353 414.131 181.588 413.778C181.827 413.426 181.946 412.977 181.946 412.432ZM186.743 407.273L188.834 410.841L190.925 407.273H192.47L189.652 411.636L192.47 416H190.925L188.834 412.614L186.743 416H185.197L187.97 411.636L185.197 407.273H186.743ZM200.474 404.364V416H199.065V404.364H200.474ZM204.459 410.75V416H203.118V407.273H204.413V408.636H204.527C204.732 408.193 205.042 407.837 205.459 407.568C205.875 407.295 206.413 407.159 207.072 407.159C207.663 407.159 208.18 407.28 208.624 407.523C209.067 407.761 209.411 408.125 209.658 408.614C209.904 409.098 210.027 409.712 210.027 410.455V416H208.686V410.545C208.686 409.86 208.508 409.326 208.152 408.943C207.796 408.557 207.307 408.364 206.686 408.364C206.258 408.364 205.875 408.456 205.538 408.642C205.205 408.828 204.942 409.098 204.749 409.455C204.555 409.811 204.459 410.242 204.459 410.75ZM216.523 405.614V404.364H225.25V405.614H221.591V416H220.182V405.614H216.523ZM229.636 416.182C228.795 416.182 228.07 415.996 227.46 415.625C226.854 415.25 226.386 414.727 226.057 414.057C225.731 413.383 225.568 412.598 225.568 411.705C225.568 410.811 225.731 410.023 226.057 409.341C226.386 408.655 226.845 408.121 227.432 407.739C228.023 407.352 228.712 407.159 229.5 407.159C229.955 407.159 230.403 407.235 230.847 407.386C231.29 407.538 231.693 407.784 232.057 408.125C232.42 408.462 232.71 408.909 232.926 409.466C233.142 410.023 233.25 410.708 233.25 411.523V412.091H226.523V410.932H231.886C231.886 410.439 231.788 410 231.591 409.614C231.398 409.227 231.121 408.922 230.761 408.699C230.405 408.475 229.985 408.364 229.5 408.364C228.966 408.364 228.504 408.496 228.114 408.761C227.727 409.023 227.43 409.364 227.222 409.784C227.013 410.205 226.909 410.655 226.909 411.136V411.909C226.909 412.568 227.023 413.127 227.25 413.585C227.481 414.04 227.801 414.386 228.21 414.625C228.619 414.86 229.095 414.977 229.636 414.977C229.989 414.977 230.307 414.928 230.591 414.83C230.879 414.727 231.127 414.576 231.335 414.375C231.544 414.17 231.705 413.917 231.818 413.614L233.114 413.977C232.977 414.417 232.748 414.803 232.426 415.136C232.104 415.466 231.706 415.723 231.233 415.909C230.759 416.091 230.227 416.182 229.636 416.182ZM236.631 410.75V416H235.29V407.273H236.585V408.636H236.699C236.903 408.193 237.214 407.837 237.631 407.568C238.047 407.295 238.585 407.159 239.244 407.159C239.835 407.159 240.352 407.28 240.795 407.523C241.239 407.761 241.583 408.125 241.83 408.614C242.076 409.098 242.199 409.712 242.199 410.455V416H240.858V410.545C240.858 409.86 240.68 409.326 240.324 408.943C239.968 408.557 239.479 408.364 238.858 408.364C238.43 408.364 238.047 408.456 237.71 408.642C237.377 408.828 237.114 409.098 236.92 409.455C236.727 409.811 236.631 410.242 236.631 410.75ZM248.308 416.182C247.467 416.182 246.742 415.996 246.132 415.625C245.526 415.25 245.058 414.727 244.729 414.057C244.403 413.383 244.24 412.598 244.24 411.705C244.24 410.811 244.403 410.023 244.729 409.341C245.058 408.655 245.517 408.121 246.104 407.739C246.695 407.352 247.384 407.159 248.172 407.159C248.626 407.159 249.075 407.235 249.518 407.386C249.962 407.538 250.365 407.784 250.729 408.125C251.092 408.462 251.382 408.909 251.598 409.466C251.814 410.023 251.922 410.708 251.922 411.523V412.091H245.195V410.932H250.558C250.558 410.439 250.46 410 250.263 409.614C250.07 409.227 249.793 408.922 249.433 408.699C249.077 408.475 248.657 408.364 248.172 408.364C247.638 408.364 247.176 408.496 246.786 408.761C246.399 409.023 246.102 409.364 245.893 409.784C245.685 410.205 245.581 410.655 245.581 411.136V411.909C245.581 412.568 245.695 413.127 245.922 413.585C246.153 414.04 246.473 414.386 246.882 414.625C247.291 414.86 247.767 414.977 248.308 414.977C248.661 414.977 248.979 414.928 249.263 414.83C249.551 414.727 249.799 414.576 250.007 414.375C250.215 414.17 250.376 413.917 250.49 413.614L251.786 413.977C251.649 414.417 251.42 414.803 251.098 415.136C250.776 415.466 250.378 415.723 249.905 415.909C249.431 416.091 248.899 416.182 248.308 416.182ZM254.143 416V404.364H255.484V408.659H255.598C255.696 408.508 255.833 408.314 256.007 408.08C256.185 407.841 256.439 407.629 256.768 407.443C257.102 407.254 257.553 407.159 258.121 407.159C258.856 407.159 259.503 407.343 260.064 407.71C260.625 408.078 261.062 408.598 261.376 409.273C261.691 409.947 261.848 410.742 261.848 411.659C261.848 412.583 261.691 413.384 261.376 414.062C261.062 414.737 260.626 415.259 260.07 415.631C259.513 415.998 258.871 416.182 258.143 416.182C257.583 416.182 257.134 416.089 256.797 415.903C256.46 415.714 256.2 415.5 256.018 415.261C255.837 415.019 255.696 414.818 255.598 414.659H255.439V416H254.143ZM255.462 411.636C255.462 412.295 255.558 412.877 255.751 413.381C255.945 413.881 256.227 414.273 256.598 414.557C256.969 414.837 257.424 414.977 257.962 414.977C258.522 414.977 258.99 414.83 259.365 414.534C259.744 414.235 260.028 413.833 260.217 413.33C260.411 412.822 260.507 412.258 260.507 411.636C260.507 411.023 260.412 410.47 260.223 409.977C260.037 409.481 259.755 409.089 259.376 408.801C259.001 408.509 258.53 408.364 257.962 408.364C257.416 408.364 256.958 408.502 256.587 408.778C256.215 409.051 255.935 409.434 255.746 409.926C255.556 410.415 255.462 410.985 255.462 411.636ZM263.899 416V407.273H265.195V408.591H265.286C265.445 408.159 265.732 407.809 266.149 407.54C266.566 407.271 267.036 407.136 267.558 407.136C267.657 407.136 267.78 407.138 267.928 407.142C268.075 407.146 268.187 407.152 268.263 407.159V408.523C268.217 408.511 268.113 408.494 267.95 408.472C267.791 408.445 267.623 408.432 267.445 408.432C267.02 408.432 266.642 408.521 266.308 408.699C265.979 408.873 265.717 409.116 265.524 409.426C265.335 409.733 265.24 410.083 265.24 410.477V416H263.899ZM269.852 416V407.273H271.193V416H269.852ZM270.534 405.818C270.273 405.818 270.047 405.729 269.858 405.551C269.672 405.373 269.58 405.159 269.58 404.909C269.58 404.659 269.672 404.445 269.858 404.267C270.047 404.089 270.273 404 270.534 404C270.795 404 271.019 404.089 271.205 404.267C271.394 404.445 271.489 404.659 271.489 404.909C271.489 405.159 271.394 405.373 271.205 405.551C271.019 405.729 270.795 405.818 270.534 405.818ZM279.831 409.227L278.626 409.568C278.551 409.367 278.439 409.172 278.291 408.983C278.147 408.79 277.95 408.631 277.7 408.506C277.45 408.381 277.13 408.318 276.74 408.318C276.206 408.318 275.761 408.441 275.405 408.688C275.053 408.93 274.876 409.239 274.876 409.614C274.876 409.947 274.998 410.21 275.24 410.403C275.482 410.597 275.861 410.758 276.376 410.886L277.672 411.205C278.452 411.394 279.034 411.684 279.416 412.074C279.799 412.46 279.99 412.958 279.99 413.568C279.99 414.068 279.846 414.515 279.558 414.909C279.274 415.303 278.876 415.614 278.365 415.841C277.854 416.068 277.259 416.182 276.581 416.182C275.691 416.182 274.954 415.989 274.371 415.602C273.787 415.216 273.418 414.652 273.263 413.909L274.536 413.591C274.657 414.061 274.886 414.413 275.223 414.648C275.564 414.883 276.009 415 276.558 415C277.183 415 277.679 414.867 278.047 414.602C278.418 414.333 278.604 414.011 278.604 413.636C278.604 413.333 278.498 413.08 278.286 412.875C278.073 412.667 277.748 412.511 277.308 412.409L275.854 412.068C275.054 411.879 274.467 411.585 274.092 411.188C273.721 410.786 273.536 410.284 273.536 409.682C273.536 409.189 273.674 408.754 273.95 408.375C274.231 407.996 274.611 407.699 275.092 407.483C275.577 407.267 276.126 407.159 276.74 407.159C277.604 407.159 278.282 407.348 278.774 407.727C279.27 408.106 279.623 408.606 279.831 409.227Z" fill="black"/>
</svg>
